<?xml version="1.0" encoding="UTF-8" standalone="no" ?>
<!DOCTYPE svg PUBLIC "-//W3C//DTD SVG 1.1//EN" "http://www.w3.org/Graphics/SVG/1.1/DTD/svg11.dtd">
<svg xmlns="http://www.w3.org/2000/svg" xmlns:xlink="http://www.w3.org/1999/xlink" version="1.1" width="1080" height="1080" viewBox="0 0 1080 1080" xml:space="preserve">
<desc>Created with Fabric.js 5.2.4</desc>
<defs>
</defs>
<g transform="matrix(1 0 0 1 540 540)" id="0b1d8b1b-9d05-474e-b676-3675071ffda6"  >
<rect style="stroke: none; stroke-width: 1; stroke-dasharray: none; stroke-linecap: butt; stroke-dashoffset: 0; stroke-linejoin: miter; stroke-miterlimit: 4; fill: rgb(255,255,255); fill-rule: nonzero; opacity: 1;" vector-effect="non-scaling-stroke"  x="-540" y="-540" rx="0" ry="0" width="1080" height="1080" />
</g>
<g transform="matrix(1 0 0 1 540 540)" id="bc4c8059-0ee0-4224-8666-01a70f8aec1c"  >
</g>
<g transform="matrix(8.24 0 0 8.24 540 540)" id="9a2984e1-19d7-4e36-9bd8-7f2074d3ac6a"  >
<rect style="stroke: rgb(0,0,0); stroke-width: 0; stroke-dasharray: none; stroke-linecap: butt; stroke-dashoffset: 0; stroke-linejoin: miter; stroke-miterlimit: 4; fill: rgb(255,255,255); fill-rule: nonzero; opacity: 1;" vector-effect="non-scaling-stroke"  x="-33.085" y="-33.085" rx="0" ry="0" width="66.17" height="66.17" />
</g>
<g transform="matrix(45 0 0 45 540 540)"  >
<path style="stroke: none; stroke-width: 1; stroke-dasharray: none; stroke-linecap: butt; stroke-dashoffset: 0; stroke-linejoin: miter; stroke-miterlimit: 4; fill: rgb(0,0,0); fill-rule: nonzero; opacity: 1;"  transform=" translate(-12, -12)" d="M 10.814 0.5 C 11.125974806073023 0.18064889949283203 11.553554700977331 0.0006060590209251426 12 0.0006060590209251426 C 12.446445299022669 0.0006060590209251426 12.874025193926977 0.1806488994928317 13.186 0.49999999999999956 L 15.698 3.072 L 19.293 3.029 C 19.739673198863542 3.02357860742009 20.16963624126786 3.1986259364031318 20.485505152432363 3.514494847567634 C 20.801374063596867 3.830363758732136 20.97642139257991 4.260326801136454 20.971 4.706999999999998 L 20.928 8.302 L 23.5 10.814 C 24.167 11.464 24.167 12.536 23.5 13.186 L 20.928 15.698 L 20.971 19.293 C 20.97642139257991 19.739673198863542 20.801374063596867 20.169636241267863 20.485505152432363 20.485505152432363 C 20.169636241267863 20.801374063596867 19.739673198863542 20.97642139257991 19.293 20.971 L 15.697999999999999 20.928 L 13.185999999999998 23.5 C 12.874025193926975 23.819351100507166 12.446445299022667 23.999393940979076 11.999999999999998 23.999393940979076 C 11.55355470097733 23.999393940979076 11.125974806073021 23.81935110050717 10.813999999999998 23.5 L 8.301999999999998 20.928 L 4.706999999999997 20.971 C 4.260326801136453 20.97642139257991 3.830363758732135 20.801374063596867 3.5144948475676325 20.485505152432363 C 3.19862593640313 20.169636241267863 3.023578607420088 19.739673198863542 3.0289999999999973 19.293 L 3.0719999999999974 15.697999999999999 L 0.5 13.186 C 0.18064889949283208 12.874025193926977 0.0006060590209251426 12.446445299022669 0.0006060590209251426 12 C 0.0006060590209251426 11.553554700977331 0.1806488994928317 11.125974806073023 0.49999999999999956 10.814 L 3.072 8.302 L 3.029 4.706999999999999 C 3.0235786074200903 4.260326801136455 3.1986259364031326 3.830363758732137 3.5144948475676347 3.5144948475676343 C 3.8303637587321373 3.1986259364031318 4.260326801136456 3.02357860742009 4.707 3.028999999999999 L 8.302 3.071999999999999 L 10.814 0.5 z M 17.398 9.62 C 17.767323307062092 9.22615538293761 17.757322170361896 8.610255186902778 17.37540626169621 8.228609374353546 C 16.993490353030523 7.846963561804312 16.377583235685506 7.837398154610084 15.984 8.206999999999999 L 9.972999999999999 14.216999999999999 L 8.078999999999999 12.323999999999998 C 7.686621113035687 11.94502779049191 7.062915222978892 11.950447626102918 6.677181424540906 12.336181424540904 C 6.291447626102919 12.721915222978891 6.286027790491911 13.345621113035685 6.664999999999999 13.737999999999998 L 9.972999999999999 17.046 L 17.398 9.620999999999999 z" stroke-linecap="round" />
</g>
</svg>